<svg width="107" height="107" viewBox="0 0 107 107" fill="none" xmlns="http://www.w3.org/2000/svg">
    <path
        d="M19.8934 66.9305C16.8939 65.1988 15.8663 61.3634 17.598 58.3639L39.7234 20.0417C41.4551 17.0422 45.2905 16.0145 48.2899 17.7463L86.6122 39.8716C89.6116 41.6034 90.6393 45.4387 88.9076 48.4382L66.7822 86.7605C65.0505 89.7599 61.2151 90.7876 58.2157 89.0559L19.8934 66.9305Z"
        fill="#0072F9" />
    <g clip-path="url(#clip0_2689_5281)">
        <path
            d="M56.7997 66.6371L68.5516 46.2821L71.4595 47.9609L58.0287 71.2238L34.7659 57.793L36.4447 54.8851L56.7997 66.6371ZM57.4443 62.1628C57.2747 62.458 57.047 62.7156 56.775 62.9203C56.503 63.125 56.1924 63.2724 55.8618 63.3536C55.5312 63.4348 55.1876 63.4482 54.8518 63.3929C54.5159 63.3376 54.1947 63.2147 53.9077 63.0318C53.6206 62.8489 53.3736 62.6097 53.1816 62.3286C52.9895 62.0475 52.8565 61.7305 52.7905 61.3965C52.7244 61.0626 52.7268 60.7187 52.7974 60.3857C52.868 60.0528 53.0054 59.7375 53.2012 59.4591L50.6477 54.8599C50.1948 54.8841 49.7438 54.7857 49.3423 54.5749C48.9408 54.3641 48.6036 54.0488 48.3664 53.6623C48.1292 53.2758 48.0008 52.8324 47.9947 52.3789C47.9887 51.9255 48.1052 51.4788 48.3319 51.0861C48.5587 50.6933 48.8872 50.3691 49.283 50.1476C49.6787 49.9262 50.1269 49.8157 50.5803 49.8278C51.0336 49.84 51.4752 49.9743 51.8585 50.2167C52.2419 50.459 52.5526 50.8004 52.758 51.2047L58.0178 51.1165C58.072 50.9995 58.1356 50.8871 58.208 50.7804L53.6702 43C53.1022 43.0429 52.5364 42.892 52.0653 42.5719C51.5941 42.2518 51.2454 41.7815 51.076 41.2376C50.9067 40.6938 50.9267 40.1086 51.1328 39.5776C51.339 39.0466 51.719 38.6011 52.211 38.314C52.7029 38.0269 53.2777 37.915 53.8414 37.9966C54.4051 38.0783 54.9245 38.3486 55.3148 38.7635C55.705 39.1784 55.9431 39.7134 55.9901 40.2811C56.0371 40.8487 55.8903 41.4156 55.5736 41.889L60.1115 49.6694C60.566 49.6353 61.0212 49.7253 61.4287 49.9296C61.8361 50.1339 62.1805 50.445 62.425 50.8297C62.6695 51.2144 62.805 51.6582 62.8171 52.1139C62.8292 52.5695 62.7174 53.0199 62.4936 53.417C62.2698 53.8141 61.9425 54.143 61.5464 54.3686C61.1504 54.5943 60.7006 54.7082 60.2449 54.6983C59.7892 54.6884 59.3447 54.5549 58.9589 54.3122C58.573 54.0696 58.2603 53.7267 58.0541 53.3202L52.7942 53.4084C52.7328 53.5419 52.6592 53.6694 52.5743 53.7893L55.1278 58.3886C55.5808 58.3641 56.032 58.4625 56.4336 58.6732C56.8353 58.884 57.1727 59.1993 57.41 59.5859C57.6472 59.9725 57.7757 60.4161 57.7818 60.8696C57.7878 61.3232 57.6712 61.77 57.4443 62.1628Z"
            fill="white" />
    </g>
    <defs>
        <clipPath id="clip0_2689_5281">
            <rect width="26.8616" height="26.8616" fill="white"
                transform="translate(34.7659 57.793) rotate(-60)" />
        </clipPath>
    </defs>
</svg>
    