<svg width="23" height="23" viewBox="0 0 23 23" fill="none" xmlns="http://www.w3.org/2000/svg">
    <path
        d="M20.1364 8.41866C20.0788 8.24885 19.9727 8.09964 19.8312 7.98945C19.6897 7.87926 19.519 7.81292 19.3403 7.79861L14.1111 7.3831L11.8483 2.37409C11.7762 2.21276 11.659 2.07573 11.5108 1.97955C11.3626 1.88336 11.1897 1.83213 11.013 1.83203C10.8363 1.83193 10.6634 1.88298 10.515 1.979C10.3667 2.07502 10.2493 2.21192 10.1771 2.37317L7.91428 7.3831L2.68513 7.79861C2.50944 7.81253 2.34148 7.87677 2.20134 7.98364C2.0612 8.09052 1.95482 8.23551 1.89493 8.40126C1.83503 8.56701 1.82416 8.74651 1.8636 8.91828C1.90305 9.09005 1.99115 9.24682 2.11736 9.36983L5.98167 13.1369L4.61499 19.0549C4.57349 19.234 4.58679 19.4215 4.65316 19.593C4.71954 19.7645 4.83592 19.9121 4.9872 20.0166C5.13849 20.1211 5.3177 20.1777 5.50157 20.1791C5.68545 20.1805 5.8655 20.1266 6.01836 20.0244L11.0127 16.6949L16.007 20.0244C16.1633 20.1282 16.3475 20.1816 16.535 20.1774C16.7225 20.1733 16.9043 20.1119 17.0558 20.0014C17.2073 19.8909 17.3214 19.7367 17.3827 19.5595C17.4439 19.3822 17.4495 19.1904 17.3985 19.01L15.7209 13.1397L19.8814 9.39551C20.1539 9.1497 20.2538 8.76629 20.1364 8.41866Z"
        fill="#F3CD03" />
</svg>
    